<svg width="56" height="67" viewBox="0 0 56 67" fill="none" xmlns="http://www.w3.org/2000/svg">
<rect width="56" height="56" rx="16" fill="#FDFDFD"/>
<path d="M28 43C37.2047 43 44.6666 35.5381 44.6666 26.3333C44.6666 17.1286 37.2047 9.66667 28 9.66667C18.7952 9.66667 11.3333 17.1286 11.3333 26.3333C11.3333 35.5381 18.7952 43 28 43Z" fill="#FFF59D"/>
<path d="M38.8333 26.3333C38.8333 19.9167 33.3333 14.8333 26.75 15.5833C21.75 16.1667 17.75 20.1667 17.25 25.1667C16.8334 29 18.4167 32.4167 21.0834 34.5833C22.25 35.5833 23 37 23 38.5833V38.8333H33V38.75C33 37.25 33.6667 35.75 34.8333 34.75C37.25 32.75 38.8333 29.75 38.8333 26.3333Z" fill="#FBC02D"/>
<path d="M33.5 24.8333L31 23.1667C30.75 23 30.3333 23 30.0833 23.1667L28 24.5L26 23.1667C25.75 23 25.3333 23 25.0833 23.1667L22.5833 24.8333C22.4167 25 22.25 25.1667 22.25 25.4167C22.25 25.6667 22.25 25.9167 22.4167 26.0833L25.5833 30V38.8333H27.25V29.6667C27.25 29.5 27.1667 29.3333 27.0833 29.1667L24.3333 25.75L25.5833 24.9167L27.5833 26.25C27.8333 26.4167 28.25 26.4167 28.5 26.25L30.5 24.9167L31.75 25.75L29 29.1667C28.9167 29.3333 28.8333 29.5 28.8333 29.6667V38.8333H30.5V30L33.6667 26.0833C33.8333 25.9167 33.9167 25.6667 33.8333 25.4167C33.75 25.1667 33.6667 24.9167 33.5 24.8333Z" fill="#FFF59D"/>
<path d="M28 47.1667C29.3807 47.1667 30.5 46.0474 30.5 44.6667C30.5 43.286 29.3807 42.1667 28 42.1667C26.6193 42.1667 25.5 43.286 25.5 44.6667C25.5 46.0474 26.6193 47.1667 28 47.1667Z" fill="#5C6BC0"/>
<path d="M29.6667 45.5H26.3333C24.5 45.5 23 44 23 42.1667V38H33V42.1667C33 44 31.5 45.5 29.6667 45.5Z" fill="#9FA8DA"/>
<path d="M33 42.1667L23.3333 43.5C23.5833 44.0833 24.0833 44.6667 24.6667 45L32.5 43.9167C32.8333 43.4167 33 42.8333 33 42.1667ZM23 40.25V41.9167L33 40.5V38.8333L23 40.25Z" fill="#5C6BC0"/>
<path d="M28 67L21.0718 55H34.9282L28 67Z" fill="#FDFDFD"/>
</svg>
