<svg width="67" height="42" viewBox="0 0 67 42" fill="none" xmlns="http://www.w3.org/2000/svg">
<path d="M31.016 20.768C31.448 20.064 32.008 19.512 32.696 19.112C33.4 18.712 34.2 18.512 35.096 18.512V22.04H34.208C33.152 22.04 32.352 22.288 31.808 22.784C31.28 23.28 31.016 24.144 31.016 25.376V32H27.656V18.704H31.016V20.768ZM49.7191 25.064C49.7191 25.544 49.6871 25.976 49.6231 26.36H39.9031C39.9831 27.32 40.3191 28.072 40.9111 28.616C41.5031 29.16 42.2311 29.432 43.0951 29.432C44.3431 29.432 45.2311 28.896 45.7591 27.824H49.3831C48.9991 29.104 48.2631 30.16 47.1751 30.992C46.0871 31.808 44.7511 32.216 43.1671 32.216C41.8871 32.216 40.7351 31.936 39.7111 31.376C38.7031 30.8 37.9111 29.992 37.3351 28.952C36.7751 27.912 36.4951 26.712 36.4951 25.352C36.4951 23.976 36.7751 22.768 37.3351 21.728C37.8951 20.688 38.6791 19.888 39.6871 19.328C40.6951 18.768 41.8551 18.488 43.1671 18.488C44.4311 18.488 45.5591 18.76 46.5511 19.304C47.5591 19.848 48.3351 20.624 48.8791 21.632C49.4391 22.624 49.7191 23.768 49.7191 25.064ZM46.2391 24.104C46.2231 23.24 45.9111 22.552 45.3031 22.04C44.6951 21.512 43.9511 21.248 43.0711 21.248C42.2391 21.248 41.5351 21.504 40.9591 22.016C40.3991 22.512 40.0551 23.208 39.9271 24.104H46.2391ZM55.5316 20.624C55.9636 20.016 56.5556 19.512 57.3076 19.112C58.0756 18.696 58.9476 18.488 59.9236 18.488C61.0596 18.488 62.0836 18.768 62.9956 19.328C63.9236 19.888 64.6516 20.688 65.1796 21.728C65.7236 22.752 65.9956 23.944 65.9956 25.304C65.9956 26.664 65.7236 27.872 65.1796 28.928C64.6516 29.968 63.9236 30.776 62.9956 31.352C62.0836 31.928 61.0596 32.216 59.9236 32.216C58.9476 32.216 58.0836 32.016 57.3316 31.616C56.5956 31.216 55.9956 30.712 55.5316 30.104V38.336H52.1716V18.704H55.5316V20.624ZM62.5636 25.304C62.5636 24.504 62.3956 23.816 62.0596 23.24C61.7396 22.648 61.3076 22.2 60.7636 21.896C60.2356 21.592 59.6596 21.44 59.0356 21.44C58.4276 21.44 57.8516 21.6 57.3076 21.92C56.7796 22.224 56.3476 22.672 56.0116 23.264C55.6916 23.856 55.5316 24.552 55.5316 25.352C55.5316 26.152 55.6916 26.848 56.0116 27.44C56.3476 28.032 56.7796 28.488 57.3076 28.808C57.8516 29.112 58.4276 29.264 59.0356 29.264C59.6596 29.264 60.2356 29.104 60.7636 28.784C61.3076 28.464 61.7396 28.008 62.0596 27.416C62.3956 26.824 62.5636 26.12 62.5636 25.304Z" fill="#EBEBEB"/>
<path d="M12.252 23.877H5.73047V19.7637H12.252C13.2598 19.7637 14.0801 19.5996 14.7129 19.2715C15.3457 18.9316 15.8086 18.4629 16.1016 17.8652C16.3945 17.2676 16.541 16.5938 16.541 15.8438C16.541 15.082 16.3945 14.373 16.1016 13.7168C15.8086 13.0605 15.3457 12.5332 14.7129 12.1348C14.0801 11.7363 13.2598 11.5371 12.252 11.5371H7.55859V33H2.28516V7.40625H12.252C14.2559 7.40625 15.9727 7.76953 17.4023 8.49609C18.8438 9.21094 19.9453 10.2012 20.707 11.4668C21.4688 12.7324 21.8496 14.1797 21.8496 15.8086C21.8496 17.4609 21.4688 18.8906 20.707 20.0977C19.9453 21.3047 18.8438 22.2363 17.4023 22.8926C15.9727 23.5488 14.2559 23.877 12.252 23.877Z" fill="#111D5E"/>
<path d="M5.73047 23.877H1.73047V27.877H5.73047V23.877ZM5.73047 19.7637V15.7637H1.73047V19.7637H5.73047ZM14.7129 19.2715L16.5542 22.8225L16.5799 22.8092L16.6054 22.7955L14.7129 19.2715ZM7.55859 11.5371V7.53711H3.55859V11.5371H7.55859ZM7.55859 33V37H11.5586V33H7.55859ZM2.28516 33H-1.71484V37H2.28516V33ZM2.28516 7.40625V3.40625H-1.71484V7.40625H2.28516ZM17.4023 8.49609L15.5901 12.062L15.6076 12.0709L15.6252 12.0796L17.4023 8.49609ZM17.4023 22.8926L15.7449 19.2521L15.7337 19.2573L17.4023 22.8926ZM12.252 19.877H5.73047V27.877H12.252V19.877ZM9.73047 23.877V19.7637H1.73047V23.877H9.73047ZM5.73047 23.7637H12.252V15.7637H5.73047V23.7637ZM12.252 23.7637C13.6517 23.7637 15.1663 23.5421 16.5542 22.8225L12.8716 15.7205C12.9402 15.6849 12.9428 15.6975 12.8386 15.7183C12.7328 15.7395 12.544 15.7637 12.252 15.7637V23.7637ZM16.6054 22.7955C17.9134 22.093 19.0025 21.0349 19.6932 19.6259L12.5099 16.1046C12.5516 16.0196 12.6132 15.9307 12.6885 15.8545C12.7617 15.7803 12.8167 15.7495 12.8204 15.7475L16.6054 22.7955ZM19.6932 19.6259C20.2872 18.4142 20.541 17.1261 20.541 15.8438H12.541C12.541 15.9578 12.53 16.0273 12.5224 16.0619C12.5186 16.0795 12.5152 16.0905 12.5133 16.0961C12.5114 16.1016 12.5102 16.1041 12.5099 16.1046L19.6932 19.6259ZM20.541 15.8438C20.541 14.5544 20.2897 13.2859 19.7541 12.0862L12.449 15.3474C12.4993 15.4602 12.541 15.6097 12.541 15.8438H20.541ZM19.7541 12.0862C19.1251 10.6773 18.1177 9.55169 16.8441 8.74983L12.5816 15.5197C12.5934 15.5271 12.5674 15.5122 12.5285 15.4678C12.4887 15.4225 12.4622 15.3769 12.449 15.3474L19.7541 12.0862ZM16.8441 8.74983C15.3874 7.8326 13.7594 7.53711 12.252 7.53711V15.5371C12.4971 15.5371 12.6307 15.5618 12.6791 15.5735C12.7224 15.5841 12.6751 15.5785 12.5816 15.5197L16.8441 8.74983ZM12.252 7.53711H7.55859V15.5371H12.252V7.53711ZM3.55859 11.5371V33H11.5586V11.5371H3.55859ZM7.55859 29H2.28516V37H7.55859V29ZM6.28516 33V7.40625H-1.71484V33H6.28516ZM2.28516 11.4062H12.252V3.40625H2.28516V11.4062ZM12.252 11.4062C13.7798 11.4062 14.8446 11.6831 15.5901 12.062L19.2145 4.93015C17.1007 3.85592 14.7319 3.40625 12.252 3.40625V11.4062ZM15.6252 12.0796C16.4461 12.4868 16.9467 12.9759 17.2799 13.5294L24.1342 9.40415C22.9439 7.42639 21.2414 5.9351 19.1795 4.91258L15.6252 12.0796ZM17.2799 13.5294C17.629 14.1096 17.8496 14.8296 17.8496 15.8086H25.8496C25.8496 13.5298 25.3085 11.3553 24.1342 9.40415L17.2799 13.5294ZM17.8496 15.8086C17.8496 16.8269 17.6225 17.4905 17.3243 17.9629L24.0898 22.2324C25.315 20.2908 25.8496 18.095 25.8496 15.8086H17.8496ZM17.3243 17.9629C17.0236 18.4395 16.5574 18.8822 15.7449 19.2521L19.0598 26.533C21.1301 25.5905 22.8671 24.1699 24.0898 22.2324L17.3243 17.9629ZM15.7337 19.2573C14.9501 19.6169 13.8322 19.877 12.252 19.877V27.877C14.6796 27.877 16.9952 27.4807 19.071 26.5279L15.7337 19.2573Z" fill="#F37121"/>
</svg>
